<mxfile host="app.diagrams.net" agent="Mozilla/5.0 (Windows NT 10.0; Win64; x64) AppleWebKit/537.36 (KHTML, like Gecko) Chrome/136.0.0.0 Safari/537.36" version="27.1.1">
  <diagram key="C5RBs43oDa-KdzZeNtuy" name="Page-1">
    <mxGraphModel dx="2864" dy="1061" grid="1" gridSize="10" guides="1" tooltips="1" connect="1" arrows="1" fold="1" page="1" pageScale="1" pageWidth="827" pageHeight="1169" math="0" shadow="0">
      <root>
        <mxCell key="WIyWlLk6GJQsqaUBKTNV-0" />
        <mxCell key="WIyWlLk6GJQsqaUBKTNV-1" parent="WIyWlLk6GJQsqaUBKTNV-0" />
        <mxCell key="bw-s7jQWCwu21yLXVbwr-144" style="edgeStyle=orthogonalEdgeStyle;rounded=0;orthogonalLoop=1;jettySize=auto;html=1;endArrow=diamondThin;endFill=1;" edge="1" parent="WIyWlLk6GJQsqaUBKTNV-1" source="zkfFHV4jXpPFQw0GAbJ--0" target="bw-s7jQWCwu21yLXVbwr-131">
          <mxGeometry relative="1" as="geometry" />
        </mxCell>
        <mxCell key="bw-s7jQWCwu21yLXVbwr-145" value="1" style="edgeLabel;html=1;align=center;verticalAlign=middle;resizable=0;points=[];" vertex="1" connectable="0" parent="bw-s7jQWCwu21yLXVbwr-144">
          <mxGeometry x="0.5128" y="-4" relative="1" as="geometry">
            <mxPoint x="76" y="-13" as="offset" />
          </mxGeometry>
        </mxCell>
        <mxCell key="zkfFHV4jXpPFQw0GAbJ--0" value="&lt;&lt;abstract&gt;&gt;&#xa;Usuario" style="swimlane;fontStyle=2;align=center;verticalAlign=top;childLayout=stackLayout;horizontal=1;startSize=40;horizontalStack=0;resizeParent=1;resizeLast=0;collapsible=1;marginBottom=0;rounded=0;shadow=0;strokeWidth=1;" parent="WIyWlLk6GJQsqaUBKTNV-1" vertex="1">
          <mxGeometry x="220" y="270" width="160" height="152" as="geometry">
            <mxRectangle x="230" y="140" width="160" height="26" as="alternateBounds" />
          </mxGeometry>
        </mxCell>
        <mxCell key="zkfFHV4jXpPFQw0GAbJ--1" value="- nome : String" style="text;align=left;verticalAlign=top;spacingLeft=4;spacingRight=4;overflow=hidden;rotatable=0;points=[[0,0.5],[1,0.5]];portConstraint=eastwest;" parent="zkfFHV4jXpPFQw0GAbJ--0" vertex="1">
          <mxGeometry y="40" width="160" height="26" as="geometry" />
        </mxCell>
        <mxCell key="zkfFHV4jXpPFQw0GAbJ--2" value="- email: String" style="text;align=left;verticalAlign=top;spacingLeft=4;spacingRight=4;overflow=hidden;rotatable=0;points=[[0,0.5],[1,0.5]];portConstraint=eastwest;rounded=0;shadow=0;html=0;" parent="zkfFHV4jXpPFQw0GAbJ--0" vertex="1">
          <mxGeometry y="66" width="160" height="26" as="geometry" />
        </mxCell>
        <mxCell key="bw-s7jQWCwu21yLXVbwr-0" value="- senha : String" style="text;align=left;verticalAlign=top;spacingLeft=4;spacingRight=4;overflow=hidden;rotatable=0;points=[[0,0.5],[1,0.5]];portConstraint=eastwest;rounded=0;shadow=0;html=0;" vertex="1" parent="zkfFHV4jXpPFQw0GAbJ--0">
          <mxGeometry y="92" width="160" height="26" as="geometry" />
        </mxCell>
        <mxCell key="bw-s7jQWCwu21yLXVbwr-1" value="- telefone : String" style="text;align=left;verticalAlign=top;spacingLeft=4;spacingRight=4;overflow=hidden;rotatable=0;points=[[0,0.5],[1,0.5]];portConstraint=eastwest;rounded=0;shadow=0;html=0;" vertex="1" parent="zkfFHV4jXpPFQw0GAbJ--0">
          <mxGeometry y="118" width="160" height="26" as="geometry" />
        </mxCell>
        <mxCell key="zkfFHV4jXpPFQw0GAbJ--4" value="" style="line;html=1;strokeWidth=1;align=left;verticalAlign=middle;spacingTop=-1;spacingLeft=3;spacingRight=3;rotatable=0;labelPosition=right;points=[];portConstraint=eastwest;" parent="zkfFHV4jXpPFQw0GAbJ--0" vertex="1">
          <mxGeometry y="144" width="160" height="8" as="geometry" />
        </mxCell>
        <mxCell key="zkfFHV4jXpPFQw0GAbJ--6" value="Administrador" style="swimlane;fontStyle=0;align=center;verticalAlign=top;childLayout=stackLayout;horizontal=1;startSize=26;horizontalStack=0;resizeParent=1;resizeLast=0;collapsible=1;marginBottom=0;rounded=0;shadow=0;strokeWidth=1;" parent="WIyWlLk6GJQsqaUBKTNV-1" vertex="1">
          <mxGeometry x="-150" y="499" width="160" height="60" as="geometry">
            <mxRectangle x="130" y="380" width="160" height="26" as="alternateBounds" />
          </mxGeometry>
        </mxCell>
        <mxCell key="zkfFHV4jXpPFQw0GAbJ--7" value="- matricula : String" style="text;align=left;verticalAlign=top;spacingLeft=4;spacingRight=4;overflow=hidden;rotatable=0;points=[[0,0.5],[1,0.5]];portConstraint=eastwest;" parent="zkfFHV4jXpPFQw0GAbJ--6" vertex="1">
          <mxGeometry y="26" width="160" height="26" as="geometry" />
        </mxCell>
        <mxCell key="zkfFHV4jXpPFQw0GAbJ--9" value="" style="line;html=1;strokeWidth=1;align=left;verticalAlign=middle;spacingTop=-1;spacingLeft=3;spacingRight=3;rotatable=0;labelPosition=right;points=[];portConstraint=eastwest;" parent="zkfFHV4jXpPFQw0GAbJ--6" vertex="1">
          <mxGeometry y="52" width="160" height="8" as="geometry" />
        </mxCell>
        <mxCell key="zkfFHV4jXpPFQw0GAbJ--12" value="" style="endArrow=block;endSize=10;endFill=0;shadow=0;strokeWidth=1;rounded=0;curved=0;edgeStyle=elbowEdgeStyle;elbow=vertical;" parent="WIyWlLk6GJQsqaUBKTNV-1" source="zkfFHV4jXpPFQw0GAbJ--6" target="zkfFHV4jXpPFQw0GAbJ--0" edge="1">
          <mxGeometry width="160" relative="1" as="geometry">
            <mxPoint x="200" y="203" as="sourcePoint" />
            <mxPoint x="200" y="203" as="targetPoint" />
          </mxGeometry>
        </mxCell>
        <mxCell key="bw-s7jQWCwu21yLXVbwr-98" style="rounded=0;orthogonalLoop=1;jettySize=auto;html=1;endArrow=diamondThin;endFill=1;" edge="1" parent="WIyWlLk6GJQsqaUBKTNV-1" source="zkfFHV4jXpPFQw0GAbJ--13" target="bw-s7jQWCwu21yLXVbwr-91">
          <mxGeometry relative="1" as="geometry">
            <mxPoint x="730" y="620" as="sourcePoint" />
          </mxGeometry>
        </mxCell>
        <mxCell key="bw-s7jQWCwu21yLXVbwr-99" value="1" style="edgeLabel;html=1;align=center;verticalAlign=middle;resizable=0;points=[];" vertex="1" connectable="0" parent="bw-s7jQWCwu21yLXVbwr-98">
          <mxGeometry x="-0.8187" y="1" relative="1" as="geometry">
            <mxPoint x="29" y="12" as="offset" />
          </mxGeometry>
        </mxCell>
        <mxCell key="bw-s7jQWCwu21yLXVbwr-100" value="(0,n)" style="edgeLabel;html=1;align=center;verticalAlign=middle;resizable=0;points=[];" vertex="1" connectable="0" parent="bw-s7jQWCwu21yLXVbwr-98">
          <mxGeometry x="0.8238" y="1" relative="1" as="geometry">
            <mxPoint x="24" as="offset" />
          </mxGeometry>
        </mxCell>
        <mxCell key="zkfFHV4jXpPFQw0GAbJ--13" value="Hospede" style="swimlane;fontStyle=0;align=center;verticalAlign=top;childLayout=stackLayout;horizontal=1;startSize=26;horizontalStack=0;resizeParent=1;resizeLast=0;collapsible=1;marginBottom=0;rounded=0;shadow=0;strokeWidth=1;" parent="WIyWlLk6GJQsqaUBKTNV-1" vertex="1">
          <mxGeometry x="590" y="499" width="160" height="86" as="geometry">
            <mxRectangle x="340" y="380" width="170" height="26" as="alternateBounds" />
          </mxGeometry>
        </mxCell>
        <mxCell key="zkfFHV4jXpPFQw0GAbJ--14" value="- rg : String" style="text;align=left;verticalAlign=top;spacingLeft=4;spacingRight=4;overflow=hidden;rotatable=0;points=[[0,0.5],[1,0.5]];portConstraint=eastwest;" parent="zkfFHV4jXpPFQw0GAbJ--13" vertex="1">
          <mxGeometry y="26" width="160" height="26" as="geometry" />
        </mxCell>
        <mxCell key="bw-s7jQWCwu21yLXVbwr-11" value="- dataNascimento : Date" style="text;align=left;verticalAlign=top;spacingLeft=4;spacingRight=4;overflow=hidden;rotatable=0;points=[[0,0.5],[1,0.5]];portConstraint=eastwest;" vertex="1" parent="zkfFHV4jXpPFQw0GAbJ--13">
          <mxGeometry y="52" width="160" height="26" as="geometry" />
        </mxCell>
        <mxCell key="zkfFHV4jXpPFQw0GAbJ--15" value="" style="line;html=1;strokeWidth=1;align=left;verticalAlign=middle;spacingTop=-1;spacingLeft=3;spacingRight=3;rotatable=0;labelPosition=right;points=[];portConstraint=eastwest;" parent="zkfFHV4jXpPFQw0GAbJ--13" vertex="1">
          <mxGeometry y="78" width="160" height="8" as="geometry" />
        </mxCell>
        <mxCell key="zkfFHV4jXpPFQw0GAbJ--16" value="" style="endArrow=block;endSize=10;endFill=0;shadow=0;strokeWidth=1;rounded=0;curved=0;edgeStyle=elbowEdgeStyle;elbow=vertical;" parent="WIyWlLk6GJQsqaUBKTNV-1" source="zkfFHV4jXpPFQw0GAbJ--13" target="zkfFHV4jXpPFQw0GAbJ--0" edge="1">
          <mxGeometry width="160" relative="1" as="geometry">
            <mxPoint x="210" y="373" as="sourcePoint" />
            <mxPoint x="310" y="271" as="targetPoint" />
          </mxGeometry>
        </mxCell>
        <mxCell key="bw-s7jQWCwu21yLXVbwr-9" style="edgeStyle=orthogonalEdgeStyle;rounded=0;orthogonalLoop=1;jettySize=auto;html=1;endArrow=diamondThin;endFill=1;" edge="1" parent="WIyWlLk6GJQsqaUBKTNV-1" source="bw-s7jQWCwu21yLXVbwr-3" target="zkfFHV4jXpPFQw0GAbJ--0">
          <mxGeometry relative="1" as="geometry" />
        </mxCell>
        <mxCell key="bw-s7jQWCwu21yLXVbwr-10" value="1" style="edgeLabel;html=1;align=center;verticalAlign=middle;resizable=0;points=[];" vertex="1" connectable="0" parent="bw-s7jQWCwu21yLXVbwr-9">
          <mxGeometry x="-0.7333" y="3" relative="1" as="geometry">
            <mxPoint as="offset" />
          </mxGeometry>
        </mxCell>
        <mxCell key="bw-s7jQWCwu21yLXVbwr-3" value="&lt;&lt;enum&gt;&gt;&#xa;TipoUsuario" style="swimlane;fontStyle=0;align=center;verticalAlign=top;childLayout=stackLayout;horizontal=1;startSize=40;horizontalStack=0;resizeParent=1;resizeLast=0;collapsible=1;marginBottom=0;rounded=0;shadow=0;strokeWidth=1;" vertex="1" parent="WIyWlLk6GJQsqaUBKTNV-1">
          <mxGeometry x="220" y="100" width="160" height="100" as="geometry">
            <mxRectangle x="340" y="380" width="170" height="26" as="alternateBounds" />
          </mxGeometry>
        </mxCell>
        <mxCell key="bw-s7jQWCwu21yLXVbwr-4" value="ADMINISTRADOR" style="text;align=left;verticalAlign=top;spacingLeft=4;spacingRight=4;overflow=hidden;rotatable=0;points=[[0,0.5],[1,0.5]];portConstraint=eastwest;" vertex="1" parent="bw-s7jQWCwu21yLXVbwr-3">
          <mxGeometry y="40" width="160" height="26" as="geometry" />
        </mxCell>
        <mxCell key="bw-s7jQWCwu21yLXVbwr-6" value="PROPRIETARIO" style="text;align=left;verticalAlign=top;spacingLeft=4;spacingRight=4;overflow=hidden;rotatable=0;points=[[0,0.5],[1,0.5]];portConstraint=eastwest;" vertex="1" parent="bw-s7jQWCwu21yLXVbwr-3">
          <mxGeometry y="66" width="160" height="26" as="geometry" />
        </mxCell>
        <mxCell key="bw-s7jQWCwu21yLXVbwr-5" value="" style="line;html=1;strokeWidth=1;align=left;verticalAlign=middle;spacingTop=-1;spacingLeft=3;spacingRight=3;rotatable=0;labelPosition=right;points=[];portConstraint=eastwest;" vertex="1" parent="bw-s7jQWCwu21yLXVbwr-3">
          <mxGeometry y="92" width="160" height="8" as="geometry" />
        </mxCell>
        <mxCell key="bw-s7jQWCwu21yLXVbwr-18" style="rounded=0;orthogonalLoop=1;jettySize=auto;html=1;endArrow=block;endFill=0;endSize=10;" edge="1" parent="WIyWlLk6GJQsqaUBKTNV-1" source="bw-s7jQWCwu21yLXVbwr-13" target="zkfFHV4jXpPFQw0GAbJ--0">
          <mxGeometry relative="1" as="geometry" />
        </mxCell>
        <mxCell key="bw-s7jQWCwu21yLXVbwr-30" style="rounded=0;orthogonalLoop=1;jettySize=auto;html=1;endArrow=diamondThin;endFill=1;" edge="1" parent="WIyWlLk6GJQsqaUBKTNV-1" source="bw-s7jQWCwu21yLXVbwr-13" target="bw-s7jQWCwu21yLXVbwr-19">
          <mxGeometry relative="1" as="geometry" />
        </mxCell>
        <mxCell key="bw-s7jQWCwu21yLXVbwr-31" value="1" style="edgeLabel;html=1;align=center;verticalAlign=middle;resizable=0;points=[];" vertex="1" connectable="0" parent="bw-s7jQWCwu21yLXVbwr-30">
          <mxGeometry x="0.6243" y="1" relative="1" as="geometry">
            <mxPoint x="-50" y="-78" as="offset" />
          </mxGeometry>
        </mxCell>
        <mxCell key="bw-s7jQWCwu21yLXVbwr-32" value="(0,*)" style="edgeLabel;html=1;align=center;verticalAlign=middle;resizable=0;points=[];" vertex="1" connectable="0" parent="bw-s7jQWCwu21yLXVbwr-30">
          <mxGeometry x="-0.7175" relative="1" as="geometry">
            <mxPoint x="20" y="81" as="offset" />
          </mxGeometry>
        </mxCell>
        <mxCell key="bw-s7jQWCwu21yLXVbwr-13" value="Proprietario" style="swimlane;fontStyle=0;align=center;verticalAlign=top;childLayout=stackLayout;horizontal=1;startSize=26;horizontalStack=0;resizeParent=1;resizeLast=0;collapsible=1;marginBottom=0;rounded=0;shadow=0;strokeWidth=1;" vertex="1" parent="WIyWlLk6GJQsqaUBKTNV-1">
          <mxGeometry x="30" y="520" width="160" height="86" as="geometry">
            <mxRectangle x="340" y="380" width="170" height="26" as="alternateBounds" />
          </mxGeometry>
        </mxCell>
        <mxCell key="bw-s7jQWCwu21yLXVbwr-14" value="- cnpj : String" style="text;align=left;verticalAlign=top;spacingLeft=4;spacingRight=4;overflow=hidden;rotatable=0;points=[[0,0.5],[1,0.5]];portConstraint=eastwest;" vertex="1" parent="bw-s7jQWCwu21yLXVbwr-13">
          <mxGeometry y="26" width="160" height="26" as="geometry" />
        </mxCell>
        <mxCell key="bw-s7jQWCwu21yLXVbwr-15" value="- dataNascimento : Date" style="text;align=left;verticalAlign=top;spacingLeft=4;spacingRight=4;overflow=hidden;rotatable=0;points=[[0,0.5],[1,0.5]];portConstraint=eastwest;" vertex="1" parent="bw-s7jQWCwu21yLXVbwr-13">
          <mxGeometry y="52" width="160" height="26" as="geometry" />
        </mxCell>
        <mxCell key="bw-s7jQWCwu21yLXVbwr-16" value="" style="line;html=1;strokeWidth=1;align=left;verticalAlign=middle;spacingTop=-1;spacingLeft=3;spacingRight=3;rotatable=0;labelPosition=right;points=[];portConstraint=eastwest;" vertex="1" parent="bw-s7jQWCwu21yLXVbwr-13">
          <mxGeometry y="78" width="160" height="8" as="geometry" />
        </mxCell>
        <mxCell key="bw-s7jQWCwu21yLXVbwr-44" style="rounded=0;orthogonalLoop=1;jettySize=auto;html=1;endArrow=diamondThin;endFill=1;" edge="1" parent="WIyWlLk6GJQsqaUBKTNV-1" source="bw-s7jQWCwu21yLXVbwr-19" target="bw-s7jQWCwu21yLXVbwr-33">
          <mxGeometry relative="1" as="geometry" />
        </mxCell>
        <mxCell key="bw-s7jQWCwu21yLXVbwr-45" value="1" style="edgeLabel;html=1;align=center;verticalAlign=middle;resizable=0;points=[];" vertex="1" connectable="0" parent="bw-s7jQWCwu21yLXVbwr-44">
          <mxGeometry x="-0.2045" relative="1" as="geometry">
            <mxPoint x="-16" y="-26" as="offset" />
          </mxGeometry>
        </mxCell>
        <mxCell key="bw-s7jQWCwu21yLXVbwr-80" value="(0,*)" style="edgeLabel;html=1;align=center;verticalAlign=middle;resizable=0;points=[];" vertex="1" connectable="0" parent="bw-s7jQWCwu21yLXVbwr-44">
          <mxGeometry x="0.6434" y="3" relative="1" as="geometry">
            <mxPoint x="12" y="4" as="offset" />
          </mxGeometry>
        </mxCell>
        <mxCell key="bw-s7jQWCwu21yLXVbwr-56" style="rounded=0;orthogonalLoop=1;jettySize=auto;html=1;endArrow=diamondThin;endFill=1;" edge="1" parent="WIyWlLk6GJQsqaUBKTNV-1" source="bw-s7jQWCwu21yLXVbwr-19" target="bw-s7jQWCwu21yLXVbwr-47">
          <mxGeometry relative="1" as="geometry" />
        </mxCell>
        <mxCell key="bw-s7jQWCwu21yLXVbwr-57" value="(0,*)" style="edgeLabel;html=1;align=center;verticalAlign=middle;resizable=0;points=[];" vertex="1" connectable="0" parent="bw-s7jQWCwu21yLXVbwr-56">
          <mxGeometry x="0.8935" y="2" relative="1" as="geometry">
            <mxPoint x="27" y="-15" as="offset" />
          </mxGeometry>
        </mxCell>
        <mxCell key="bw-s7jQWCwu21yLXVbwr-58" value="1" style="edgeLabel;html=1;align=center;verticalAlign=middle;resizable=0;points=[];" vertex="1" connectable="0" parent="bw-s7jQWCwu21yLXVbwr-56">
          <mxGeometry x="-0.8225" y="1" relative="1" as="geometry">
            <mxPoint y="-15" as="offset" />
          </mxGeometry>
        </mxCell>
        <mxCell key="bw-s7jQWCwu21yLXVbwr-66" style="rounded=0;orthogonalLoop=1;jettySize=auto;html=1;endArrow=diamondThin;endFill=1;" edge="1" parent="WIyWlLk6GJQsqaUBKTNV-1" source="bw-s7jQWCwu21yLXVbwr-19" target="bw-s7jQWCwu21yLXVbwr-59">
          <mxGeometry relative="1" as="geometry" />
        </mxCell>
        <mxCell key="bw-s7jQWCwu21yLXVbwr-69" value="1" style="edgeLabel;html=1;align=center;verticalAlign=middle;resizable=0;points=[];" vertex="1" connectable="0" parent="bw-s7jQWCwu21yLXVbwr-66">
          <mxGeometry x="-0.8789" y="-1" relative="1" as="geometry">
            <mxPoint x="-13" y="6" as="offset" />
          </mxGeometry>
        </mxCell>
        <mxCell key="bw-s7jQWCwu21yLXVbwr-70" value="(0,*)" style="edgeLabel;html=1;align=center;verticalAlign=middle;resizable=0;points=[];" vertex="1" connectable="0" parent="bw-s7jQWCwu21yLXVbwr-66">
          <mxGeometry x="0.876" y="1" relative="1" as="geometry">
            <mxPoint x="7" y="20" as="offset" />
          </mxGeometry>
        </mxCell>
        <mxCell key="bw-s7jQWCwu21yLXVbwr-79" style="rounded=0;orthogonalLoop=1;jettySize=auto;html=1;endArrow=diamondThin;endFill=1;" edge="1" parent="WIyWlLk6GJQsqaUBKTNV-1" source="bw-s7jQWCwu21yLXVbwr-19" target="bw-s7jQWCwu21yLXVbwr-71">
          <mxGeometry relative="1" as="geometry" />
        </mxCell>
        <mxCell key="bw-s7jQWCwu21yLXVbwr-81" value="1" style="edgeLabel;html=1;align=center;verticalAlign=middle;resizable=0;points=[];" vertex="1" connectable="0" parent="bw-s7jQWCwu21yLXVbwr-79">
          <mxGeometry x="-0.8018" y="-2" relative="1" as="geometry">
            <mxPoint x="15" y="-4" as="offset" />
          </mxGeometry>
        </mxCell>
        <mxCell key="bw-s7jQWCwu21yLXVbwr-82" value="(0,*)" style="edgeLabel;html=1;align=center;verticalAlign=middle;resizable=0;points=[];" vertex="1" connectable="0" parent="bw-s7jQWCwu21yLXVbwr-79">
          <mxGeometry x="0.8943" y="1" relative="1" as="geometry">
            <mxPoint x="4" y="-25" as="offset" />
          </mxGeometry>
        </mxCell>
        <mxCell key="bw-s7jQWCwu21yLXVbwr-89" style="rounded=0;orthogonalLoop=1;jettySize=auto;html=1;endArrow=diamondThin;endFill=1;" edge="1" parent="WIyWlLk6GJQsqaUBKTNV-1" source="bw-s7jQWCwu21yLXVbwr-19" target="bw-s7jQWCwu21yLXVbwr-83">
          <mxGeometry relative="1" as="geometry" />
        </mxCell>
        <mxCell key="bw-s7jQWCwu21yLXVbwr-90" value="(0,*)" style="edgeLabel;html=1;align=center;verticalAlign=middle;resizable=0;points=[];" vertex="1" connectable="0" parent="bw-s7jQWCwu21yLXVbwr-89">
          <mxGeometry x="0.8179" y="3" relative="1" as="geometry">
            <mxPoint x="-10" y="-9" as="offset" />
          </mxGeometry>
        </mxCell>
        <mxCell key="bw-s7jQWCwu21yLXVbwr-114" value="1" style="edgeLabel;html=1;align=center;verticalAlign=middle;resizable=0;points=[];" vertex="1" connectable="0" parent="bw-s7jQWCwu21yLXVbwr-89">
          <mxGeometry x="-0.599" y="1" relative="1" as="geometry">
            <mxPoint y="-8" as="offset" />
          </mxGeometry>
        </mxCell>
        <mxCell key="bw-s7jQWCwu21yLXVbwr-101" style="rounded=0;orthogonalLoop=1;jettySize=auto;html=1;endArrow=diamondThin;endFill=1;" edge="1" parent="WIyWlLk6GJQsqaUBKTNV-1" source="bw-s7jQWCwu21yLXVbwr-19" target="bw-s7jQWCwu21yLXVbwr-91">
          <mxGeometry relative="1" as="geometry" />
        </mxCell>
        <mxCell key="bw-s7jQWCwu21yLXVbwr-102" value="(0,n)" style="edgeLabel;html=1;align=center;verticalAlign=middle;resizable=0;points=[];" vertex="1" connectable="0" parent="bw-s7jQWCwu21yLXVbwr-101">
          <mxGeometry x="0.7475" y="2" relative="1" as="geometry">
            <mxPoint x="25" y="-15" as="offset" />
          </mxGeometry>
        </mxCell>
        <mxCell key="bw-s7jQWCwu21yLXVbwr-113" value="1" style="edgeLabel;html=1;align=center;verticalAlign=middle;resizable=0;points=[];" vertex="1" connectable="0" parent="bw-s7jQWCwu21yLXVbwr-101">
          <mxGeometry x="-0.891" y="1" relative="1" as="geometry">
            <mxPoint x="-3" y="-11" as="offset" />
          </mxGeometry>
        </mxCell>
        <mxCell key="bw-s7jQWCwu21yLXVbwr-19" value="Imovel" style="swimlane;fontStyle=0;align=center;verticalAlign=top;childLayout=stackLayout;horizontal=1;startSize=26;horizontalStack=0;resizeParent=1;resizeLast=0;collapsible=1;marginBottom=0;rounded=0;shadow=0;strokeWidth=1;" vertex="1" parent="WIyWlLk6GJQsqaUBKTNV-1">
          <mxGeometry x="140" y="730" width="190" height="272" as="geometry">
            <mxRectangle x="340" y="380" width="170" height="26" as="alternateBounds" />
          </mxGeometry>
        </mxCell>
        <mxCell key="bw-s7jQWCwu21yLXVbwr-20" value="- titulo : String" style="text;align=left;verticalAlign=top;spacingLeft=4;spacingRight=4;overflow=hidden;rotatable=0;points=[[0,0.5],[1,0.5]];portConstraint=eastwest;" vertex="1" parent="bw-s7jQWCwu21yLXVbwr-19">
          <mxGeometry y="26" width="190" height="26" as="geometry" />
        </mxCell>
        <mxCell key="bw-s7jQWCwu21yLXVbwr-21" value="- descricao : String" style="text;align=left;verticalAlign=top;spacingLeft=4;spacingRight=4;overflow=hidden;rotatable=0;points=[[0,0.5],[1,0.5]];portConstraint=eastwest;" vertex="1" parent="bw-s7jQWCwu21yLXVbwr-19">
          <mxGeometry y="52" width="190" height="26" as="geometry" />
        </mxCell>
        <mxCell key="bw-s7jQWCwu21yLXVbwr-23" value="- endereco : String" style="text;align=left;verticalAlign=top;spacingLeft=4;spacingRight=4;overflow=hidden;rotatable=0;points=[[0,0.5],[1,0.5]];portConstraint=eastwest;" vertex="1" parent="bw-s7jQWCwu21yLXVbwr-19">
          <mxGeometry y="78" width="190" height="26" as="geometry" />
        </mxCell>
        <mxCell key="bw-s7jQWCwu21yLXVbwr-25" value="- cidade : String" style="text;align=left;verticalAlign=top;spacingLeft=4;spacingRight=4;overflow=hidden;rotatable=0;points=[[0,0.5],[1,0.5]];portConstraint=eastwest;" vertex="1" parent="bw-s7jQWCwu21yLXVbwr-19">
          <mxGeometry y="104" width="190" height="26" as="geometry" />
        </mxCell>
        <mxCell key="bw-s7jQWCwu21yLXVbwr-24" value="- estado : String" style="text;align=left;verticalAlign=top;spacingLeft=4;spacingRight=4;overflow=hidden;rotatable=0;points=[[0,0.5],[1,0.5]];portConstraint=eastwest;" vertex="1" parent="bw-s7jQWCwu21yLXVbwr-19">
          <mxGeometry y="130" width="190" height="26" as="geometry" />
        </mxCell>
        <mxCell key="bw-s7jQWCwu21yLXVbwr-27" value="- cep : String" style="text;align=left;verticalAlign=top;spacingLeft=4;spacingRight=4;overflow=hidden;rotatable=0;points=[[0,0.5],[1,0.5]];portConstraint=eastwest;" vertex="1" parent="bw-s7jQWCwu21yLXVbwr-19">
          <mxGeometry y="156" width="190" height="26" as="geometry" />
        </mxCell>
        <mxCell key="bw-s7jQWCwu21yLXVbwr-26" value="- precoDiaria : float" style="text;align=left;verticalAlign=top;spacingLeft=4;spacingRight=4;overflow=hidden;rotatable=0;points=[[0,0.5],[1,0.5]];portConstraint=eastwest;" vertex="1" parent="bw-s7jQWCwu21yLXVbwr-19">
          <mxGeometry y="182" width="190" height="26" as="geometry" />
        </mxCell>
        <mxCell key="bw-s7jQWCwu21yLXVbwr-29" value="- politicaCancelamento : String" style="text;align=left;verticalAlign=top;spacingLeft=4;spacingRight=4;overflow=hidden;rotatable=0;points=[[0,0.5],[1,0.5]];portConstraint=eastwest;" vertex="1" parent="bw-s7jQWCwu21yLXVbwr-19">
          <mxGeometry y="208" width="190" height="30" as="geometry" />
        </mxCell>
        <mxCell key="bw-s7jQWCwu21yLXVbwr-28" value="- status : String" style="text;align=left;verticalAlign=top;spacingLeft=4;spacingRight=4;overflow=hidden;rotatable=0;points=[[0,0.5],[1,0.5]];portConstraint=eastwest;" vertex="1" parent="bw-s7jQWCwu21yLXVbwr-19">
          <mxGeometry y="238" width="190" height="26" as="geometry" />
        </mxCell>
        <mxCell key="bw-s7jQWCwu21yLXVbwr-22" value="" style="line;html=1;strokeWidth=1;align=left;verticalAlign=middle;spacingTop=-1;spacingLeft=3;spacingRight=3;rotatable=0;labelPosition=right;points=[];portConstraint=eastwest;" vertex="1" parent="bw-s7jQWCwu21yLXVbwr-19">
          <mxGeometry y="264" width="190" height="8" as="geometry" />
        </mxCell>
        <mxCell key="bw-s7jQWCwu21yLXVbwr-33" value="Quarto" style="swimlane;fontStyle=0;align=center;verticalAlign=top;childLayout=stackLayout;horizontal=1;startSize=26;horizontalStack=0;resizeParent=1;resizeLast=0;collapsible=1;marginBottom=0;rounded=0;shadow=0;strokeWidth=1;" vertex="1" parent="WIyWlLk6GJQsqaUBKTNV-1">
          <mxGeometry x="-140" y="1030" width="190" height="164" as="geometry">
            <mxRectangle x="340" y="380" width="170" height="26" as="alternateBounds" />
          </mxGeometry>
        </mxCell>
        <mxCell key="bw-s7jQWCwu21yLXVbwr-34" value="- tipo: String" style="text;align=left;verticalAlign=top;spacingLeft=4;spacingRight=4;overflow=hidden;rotatable=0;points=[[0,0.5],[1,0.5]];portConstraint=eastwest;" vertex="1" parent="bw-s7jQWCwu21yLXVbwr-33">
          <mxGeometry y="26" width="190" height="26" as="geometry" />
        </mxCell>
        <mxCell key="bw-s7jQWCwu21yLXVbwr-35" value="- QuantidadeCamas: Int" style="text;align=left;verticalAlign=top;spacingLeft=4;spacingRight=4;overflow=hidden;rotatable=0;points=[[0,0.5],[1,0.5]];portConstraint=eastwest;" vertex="1" parent="bw-s7jQWCwu21yLXVbwr-33">
          <mxGeometry y="52" width="190" height="26" as="geometry" />
        </mxCell>
        <mxCell key="bw-s7jQWCwu21yLXVbwr-36" value="- banheiroPrivado : boolean" style="text;align=left;verticalAlign=top;spacingLeft=4;spacingRight=4;overflow=hidden;rotatable=0;points=[[0,0.5],[1,0.5]];portConstraint=eastwest;" vertex="1" parent="bw-s7jQWCwu21yLXVbwr-33">
          <mxGeometry y="78" width="190" height="26" as="geometry" />
        </mxCell>
        <mxCell key="bw-s7jQWCwu21yLXVbwr-37" value="- areaM2 : double" style="text;align=left;verticalAlign=top;spacingLeft=4;spacingRight=4;overflow=hidden;rotatable=0;points=[[0,0.5],[1,0.5]];portConstraint=eastwest;" vertex="1" parent="bw-s7jQWCwu21yLXVbwr-33">
          <mxGeometry y="104" width="190" height="26" as="geometry" />
        </mxCell>
        <mxCell key="bw-s7jQWCwu21yLXVbwr-38" value="- descricao : String" style="text;align=left;verticalAlign=top;spacingLeft=4;spacingRight=4;overflow=hidden;rotatable=0;points=[[0,0.5],[1,0.5]];portConstraint=eastwest;" vertex="1" parent="bw-s7jQWCwu21yLXVbwr-33">
          <mxGeometry y="130" width="190" height="26" as="geometry" />
        </mxCell>
        <mxCell key="bw-s7jQWCwu21yLXVbwr-43" value="" style="line;html=1;strokeWidth=1;align=left;verticalAlign=middle;spacingTop=-1;spacingLeft=3;spacingRight=3;rotatable=0;labelPosition=right;points=[];portConstraint=eastwest;" vertex="1" parent="bw-s7jQWCwu21yLXVbwr-33">
          <mxGeometry y="156" width="190" height="8" as="geometry" />
        </mxCell>
        <mxCell key="bw-s7jQWCwu21yLXVbwr-47" value="Area" style="swimlane;fontStyle=0;align=center;verticalAlign=top;childLayout=stackLayout;horizontal=1;startSize=26;horizontalStack=0;resizeParent=1;resizeLast=0;collapsible=1;marginBottom=0;rounded=0;shadow=0;strokeWidth=1;" vertex="1" parent="WIyWlLk6GJQsqaUBKTNV-1">
          <mxGeometry x="-180" y="750" width="190" height="138" as="geometry">
            <mxRectangle x="340" y="380" width="170" height="26" as="alternateBounds" />
          </mxGeometry>
        </mxCell>
        <mxCell key="bw-s7jQWCwu21yLXVbwr-48" value="- tipo: String" style="text;align=left;verticalAlign=top;spacingLeft=4;spacingRight=4;overflow=hidden;rotatable=0;points=[[0,0.5],[1,0.5]];portConstraint=eastwest;" vertex="1" parent="bw-s7jQWCwu21yLXVbwr-47">
          <mxGeometry y="26" width="190" height="26" as="geometry" />
        </mxCell>
        <mxCell key="bw-s7jQWCwu21yLXVbwr-52" value="- descricao : String" style="text;align=left;verticalAlign=top;spacingLeft=4;spacingRight=4;overflow=hidden;rotatable=0;points=[[0,0.5],[1,0.5]];portConstraint=eastwest;" vertex="1" parent="bw-s7jQWCwu21yLXVbwr-47">
          <mxGeometry y="52" width="190" height="26" as="geometry" />
        </mxCell>
        <mxCell key="bw-s7jQWCwu21yLXVbwr-54" value="- horarioDisponivel : String" style="text;align=left;verticalAlign=top;spacingLeft=4;spacingRight=4;overflow=hidden;rotatable=0;points=[[0,0.5],[1,0.5]];portConstraint=eastwest;" vertex="1" parent="bw-s7jQWCwu21yLXVbwr-47">
          <mxGeometry y="78" width="190" height="26" as="geometry" />
        </mxCell>
        <mxCell key="bw-s7jQWCwu21yLXVbwr-55" value="- regrasDeUso : Sring" style="text;align=left;verticalAlign=top;spacingLeft=4;spacingRight=4;overflow=hidden;rotatable=0;points=[[0,0.5],[1,0.5]];portConstraint=eastwest;" vertex="1" parent="bw-s7jQWCwu21yLXVbwr-47">
          <mxGeometry y="104" width="190" height="26" as="geometry" />
        </mxCell>
        <mxCell key="bw-s7jQWCwu21yLXVbwr-53" value="" style="line;html=1;strokeWidth=1;align=left;verticalAlign=middle;spacingTop=-1;spacingLeft=3;spacingRight=3;rotatable=0;labelPosition=right;points=[];portConstraint=eastwest;" vertex="1" parent="bw-s7jQWCwu21yLXVbwr-47">
          <mxGeometry y="130" width="190" height="8" as="geometry" />
        </mxCell>
        <mxCell key="bw-s7jQWCwu21yLXVbwr-127" style="rounded=0;orthogonalLoop=1;jettySize=auto;html=1;endArrow=diamondThin;endFill=1;" edge="1" parent="WIyWlLk6GJQsqaUBKTNV-1" source="bw-s7jQWCwu21yLXVbwr-59" target="bw-s7jQWCwu21yLXVbwr-117">
          <mxGeometry relative="1" as="geometry" />
        </mxCell>
        <mxCell key="bw-s7jQWCwu21yLXVbwr-128" value="1" style="edgeLabel;html=1;align=center;verticalAlign=middle;resizable=0;points=[];" vertex="1" connectable="0" parent="bw-s7jQWCwu21yLXVbwr-127">
          <mxGeometry x="0.5978" y="-3" relative="1" as="geometry">
            <mxPoint x="-67" y="52" as="offset" />
          </mxGeometry>
        </mxCell>
        <mxCell key="bw-s7jQWCwu21yLXVbwr-129" value="(0,*)" style="edgeLabel;html=1;align=center;verticalAlign=middle;resizable=0;points=[];" vertex="1" connectable="0" parent="bw-s7jQWCwu21yLXVbwr-127">
          <mxGeometry x="0.5497" y="-3" relative="1" as="geometry">
            <mxPoint x="16" y="13" as="offset" />
          </mxGeometry>
        </mxCell>
        <mxCell key="bw-s7jQWCwu21yLXVbwr-59" value="Servico" style="swimlane;fontStyle=0;align=center;verticalAlign=top;childLayout=stackLayout;horizontal=1;startSize=26;horizontalStack=0;resizeParent=1;resizeLast=0;collapsible=1;marginBottom=0;rounded=0;shadow=0;strokeWidth=1;" vertex="1" parent="WIyWlLk6GJQsqaUBKTNV-1">
          <mxGeometry x="650" y="1030" width="190" height="164" as="geometry">
            <mxRectangle x="340" y="380" width="170" height="26" as="alternateBounds" />
          </mxGeometry>
        </mxCell>
        <mxCell key="bw-s7jQWCwu21yLXVbwr-60" value="- nome: String" style="text;align=left;verticalAlign=top;spacingLeft=4;spacingRight=4;overflow=hidden;rotatable=0;points=[[0,0.5],[1,0.5]];portConstraint=eastwest;" vertex="1" parent="bw-s7jQWCwu21yLXVbwr-59">
          <mxGeometry y="26" width="190" height="26" as="geometry" />
        </mxCell>
        <mxCell key="bw-s7jQWCwu21yLXVbwr-64" value="- descricao : String" style="text;align=left;verticalAlign=top;spacingLeft=4;spacingRight=4;overflow=hidden;rotatable=0;points=[[0,0.5],[1,0.5]];portConstraint=eastwest;" vertex="1" parent="bw-s7jQWCwu21yLXVbwr-59">
          <mxGeometry y="52" width="190" height="26" as="geometry" />
        </mxCell>
        <mxCell key="bw-s7jQWCwu21yLXVbwr-67" value="- preco : double " style="text;align=left;verticalAlign=top;spacingLeft=4;spacingRight=4;overflow=hidden;rotatable=0;points=[[0,0.5],[1,0.5]];portConstraint=eastwest;" vertex="1" parent="bw-s7jQWCwu21yLXVbwr-59">
          <mxGeometry y="78" width="190" height="26" as="geometry" />
        </mxCell>
        <mxCell key="bw-s7jQWCwu21yLXVbwr-68" value="- disponibilidade : boolean" style="text;align=left;verticalAlign=top;spacingLeft=4;spacingRight=4;overflow=hidden;rotatable=0;points=[[0,0.5],[1,0.5]];portConstraint=eastwest;" vertex="1" parent="bw-s7jQWCwu21yLXVbwr-59">
          <mxGeometry y="104" width="190" height="26" as="geometry" />
        </mxCell>
        <mxCell key="bw-s7jQWCwu21yLXVbwr-65" value="" style="line;html=1;strokeWidth=1;align=left;verticalAlign=middle;spacingTop=-1;spacingLeft=3;spacingRight=3;rotatable=0;labelPosition=right;points=[];portConstraint=eastwest;" vertex="1" parent="bw-s7jQWCwu21yLXVbwr-59">
          <mxGeometry y="130" width="190" height="8" as="geometry" />
        </mxCell>
        <mxCell key="bw-s7jQWCwu21yLXVbwr-71" value="Evento" style="swimlane;fontStyle=0;align=center;verticalAlign=top;childLayout=stackLayout;horizontal=1;startSize=26;horizontalStack=0;resizeParent=1;resizeLast=0;collapsible=1;marginBottom=0;rounded=0;shadow=0;strokeWidth=1;" vertex="1" parent="WIyWlLk6GJQsqaUBKTNV-1">
          <mxGeometry x="280" y="1160" width="190" height="190" as="geometry">
            <mxRectangle x="340" y="380" width="170" height="26" as="alternateBounds" />
          </mxGeometry>
        </mxCell>
        <mxCell key="bw-s7jQWCwu21yLXVbwr-72" value="- nome: String" style="text;align=left;verticalAlign=top;spacingLeft=4;spacingRight=4;overflow=hidden;rotatable=0;points=[[0,0.5],[1,0.5]];portConstraint=eastwest;" vertex="1" parent="bw-s7jQWCwu21yLXVbwr-71">
          <mxGeometry y="26" width="190" height="26" as="geometry" />
        </mxCell>
        <mxCell key="bw-s7jQWCwu21yLXVbwr-73" value="- local: String" style="text;align=left;verticalAlign=top;spacingLeft=4;spacingRight=4;overflow=hidden;rotatable=0;points=[[0,0.5],[1,0.5]];portConstraint=eastwest;" vertex="1" parent="bw-s7jQWCwu21yLXVbwr-71">
          <mxGeometry y="52" width="190" height="26" as="geometry" />
        </mxCell>
        <mxCell key="bw-s7jQWCwu21yLXVbwr-74" value="- descricao: String" style="text;align=left;verticalAlign=top;spacingLeft=4;spacingRight=4;overflow=hidden;rotatable=0;points=[[0,0.5],[1,0.5]];portConstraint=eastwest;" vertex="1" parent="bw-s7jQWCwu21yLXVbwr-71">
          <mxGeometry y="78" width="190" height="26" as="geometry" />
        </mxCell>
        <mxCell key="bw-s7jQWCwu21yLXVbwr-75" value="- dataInicio: Date" style="text;align=left;verticalAlign=top;spacingLeft=4;spacingRight=4;overflow=hidden;rotatable=0;points=[[0,0.5],[1,0.5]];portConstraint=eastwest;" vertex="1" parent="bw-s7jQWCwu21yLXVbwr-71">
          <mxGeometry y="104" width="190" height="26" as="geometry" />
        </mxCell>
        <mxCell key="bw-s7jQWCwu21yLXVbwr-77" value="- dataFim: Date" style="text;align=left;verticalAlign=top;spacingLeft=4;spacingRight=4;overflow=hidden;rotatable=0;points=[[0,0.5],[1,0.5]];portConstraint=eastwest;" vertex="1" parent="bw-s7jQWCwu21yLXVbwr-71">
          <mxGeometry y="130" width="190" height="26" as="geometry" />
        </mxCell>
        <mxCell key="bw-s7jQWCwu21yLXVbwr-78" value="- capacidade: int" style="text;align=left;verticalAlign=top;spacingLeft=4;spacingRight=4;overflow=hidden;rotatable=0;points=[[0,0.5],[1,0.5]];portConstraint=eastwest;" vertex="1" parent="bw-s7jQWCwu21yLXVbwr-71">
          <mxGeometry y="156" width="190" height="26" as="geometry" />
        </mxCell>
        <mxCell key="bw-s7jQWCwu21yLXVbwr-76" value="" style="line;html=1;strokeWidth=1;align=left;verticalAlign=middle;spacingTop=-1;spacingLeft=3;spacingRight=3;rotatable=0;labelPosition=right;points=[];portConstraint=eastwest;" vertex="1" parent="bw-s7jQWCwu21yLXVbwr-71">
          <mxGeometry y="182" width="190" height="8" as="geometry" />
        </mxCell>
        <mxCell key="bw-s7jQWCwu21yLXVbwr-83" value="AvaliacaoImovel" style="swimlane;fontStyle=0;align=center;verticalAlign=top;childLayout=stackLayout;horizontal=1;startSize=26;horizontalStack=0;resizeParent=1;resizeLast=0;collapsible=1;marginBottom=0;rounded=0;shadow=0;strokeWidth=1;" vertex="1" parent="WIyWlLk6GJQsqaUBKTNV-1">
          <mxGeometry x="430" y="640" width="190" height="138" as="geometry">
            <mxRectangle x="340" y="380" width="170" height="26" as="alternateBounds" />
          </mxGeometry>
        </mxCell>
        <mxCell key="bw-s7jQWCwu21yLXVbwr-84" value="- nota: int" style="text;align=left;verticalAlign=top;spacingLeft=4;spacingRight=4;overflow=hidden;rotatable=0;points=[[0,0.5],[1,0.5]];portConstraint=eastwest;" vertex="1" parent="bw-s7jQWCwu21yLXVbwr-83">
          <mxGeometry y="26" width="190" height="26" as="geometry" />
        </mxCell>
        <mxCell key="bw-s7jQWCwu21yLXVbwr-85" value="- comentario : String" style="text;align=left;verticalAlign=top;spacingLeft=4;spacingRight=4;overflow=hidden;rotatable=0;points=[[0,0.5],[1,0.5]];portConstraint=eastwest;" vertex="1" parent="bw-s7jQWCwu21yLXVbwr-83">
          <mxGeometry y="52" width="190" height="26" as="geometry" />
        </mxCell>
        <mxCell key="bw-s7jQWCwu21yLXVbwr-86" value="- dataAvaliacao: Date" style="text;align=left;verticalAlign=top;spacingLeft=4;spacingRight=4;overflow=hidden;rotatable=0;points=[[0,0.5],[1,0.5]];portConstraint=eastwest;" vertex="1" parent="bw-s7jQWCwu21yLXVbwr-83">
          <mxGeometry y="78" width="190" height="26" as="geometry" />
        </mxCell>
        <mxCell key="bw-s7jQWCwu21yLXVbwr-87" value="- regrasDeUso : Sring" style="text;align=left;verticalAlign=top;spacingLeft=4;spacingRight=4;overflow=hidden;rotatable=0;points=[[0,0.5],[1,0.5]];portConstraint=eastwest;" vertex="1" parent="bw-s7jQWCwu21yLXVbwr-83">
          <mxGeometry y="104" width="190" height="26" as="geometry" />
        </mxCell>
        <mxCell key="bw-s7jQWCwu21yLXVbwr-88" value="" style="line;html=1;strokeWidth=1;align=left;verticalAlign=middle;spacingTop=-1;spacingLeft=3;spacingRight=3;rotatable=0;labelPosition=right;points=[];portConstraint=eastwest;" vertex="1" parent="bw-s7jQWCwu21yLXVbwr-83">
          <mxGeometry y="130" width="190" height="8" as="geometry" />
        </mxCell>
        <mxCell key="bw-s7jQWCwu21yLXVbwr-91" value="Reserva" style="swimlane;fontStyle=0;align=center;verticalAlign=top;childLayout=stackLayout;horizontal=1;startSize=26;horizontalStack=0;resizeParent=1;resizeLast=0;collapsible=1;marginBottom=0;rounded=0;shadow=0;strokeWidth=1;" vertex="1" parent="WIyWlLk6GJQsqaUBKTNV-1">
          <mxGeometry x="760" y="710" width="190" height="164" as="geometry">
            <mxRectangle x="340" y="380" width="170" height="26" as="alternateBounds" />
          </mxGeometry>
        </mxCell>
        <mxCell key="bw-s7jQWCwu21yLXVbwr-92" value="- dataInicio: Date" style="text;align=left;verticalAlign=top;spacingLeft=4;spacingRight=4;overflow=hidden;rotatable=0;points=[[0,0.5],[1,0.5]];portConstraint=eastwest;" vertex="1" parent="bw-s7jQWCwu21yLXVbwr-91">
          <mxGeometry y="26" width="190" height="26" as="geometry" />
        </mxCell>
        <mxCell key="bw-s7jQWCwu21yLXVbwr-93" value="- dataFim: Date" style="text;align=left;verticalAlign=top;spacingLeft=4;spacingRight=4;overflow=hidden;rotatable=0;points=[[0,0.5],[1,0.5]];portConstraint=eastwest;" vertex="1" parent="bw-s7jQWCwu21yLXVbwr-91">
          <mxGeometry y="52" width="190" height="26" as="geometry" />
        </mxCell>
        <mxCell key="bw-s7jQWCwu21yLXVbwr-94" value="- reserva: Date" style="text;align=left;verticalAlign=top;spacingLeft=4;spacingRight=4;overflow=hidden;rotatable=0;points=[[0,0.5],[1,0.5]];portConstraint=eastwest;" vertex="1" parent="bw-s7jQWCwu21yLXVbwr-91">
          <mxGeometry y="78" width="190" height="26" as="geometry" />
        </mxCell>
        <mxCell key="bw-s7jQWCwu21yLXVbwr-95" value="- valorTotal : double" style="text;align=left;verticalAlign=top;spacingLeft=4;spacingRight=4;overflow=hidden;rotatable=0;points=[[0,0.5],[1,0.5]];portConstraint=eastwest;" vertex="1" parent="bw-s7jQWCwu21yLXVbwr-91">
          <mxGeometry y="104" width="190" height="26" as="geometry" />
        </mxCell>
        <mxCell key="bw-s7jQWCwu21yLXVbwr-97" value="-status: String" style="text;align=left;verticalAlign=top;spacingLeft=4;spacingRight=4;overflow=hidden;rotatable=0;points=[[0,0.5],[1,0.5]];portConstraint=eastwest;" vertex="1" parent="bw-s7jQWCwu21yLXVbwr-91">
          <mxGeometry y="130" width="190" height="26" as="geometry" />
        </mxCell>
        <mxCell key="bw-s7jQWCwu21yLXVbwr-96" value="" style="line;html=1;strokeWidth=1;align=left;verticalAlign=middle;spacingTop=-1;spacingLeft=3;spacingRight=3;rotatable=0;labelPosition=right;points=[];portConstraint=eastwest;" vertex="1" parent="bw-s7jQWCwu21yLXVbwr-91">
          <mxGeometry y="156" width="190" height="8" as="geometry" />
        </mxCell>
        <mxCell key="bw-s7jQWCwu21yLXVbwr-107" style="rounded=0;orthogonalLoop=1;jettySize=auto;html=1;endArrow=diamondThin;endFill=1;" edge="1" parent="WIyWlLk6GJQsqaUBKTNV-1" source="bw-s7jQWCwu21yLXVbwr-103" target="bw-s7jQWCwu21yLXVbwr-71">
          <mxGeometry relative="1" as="geometry" />
        </mxCell>
        <mxCell key="bw-s7jQWCwu21yLXVbwr-108" value="1" style="edgeLabel;html=1;align=center;verticalAlign=middle;resizable=0;points=[];" vertex="1" connectable="0" parent="bw-s7jQWCwu21yLXVbwr-107">
          <mxGeometry x="0.6477" relative="1" as="geometry">
            <mxPoint x="6" y="14" as="offset" />
          </mxGeometry>
        </mxCell>
        <mxCell key="bw-s7jQWCwu21yLXVbwr-111" value="(0,*)" style="edgeLabel;html=1;align=center;verticalAlign=middle;resizable=0;points=[];" vertex="1" connectable="0" parent="bw-s7jQWCwu21yLXVbwr-107">
          <mxGeometry x="-0.4986" y="1" relative="1" as="geometry">
            <mxPoint x="44" y="-43" as="offset" />
          </mxGeometry>
        </mxCell>
        <mxCell key="bw-s7jQWCwu21yLXVbwr-109" style="rounded=0;orthogonalLoop=1;jettySize=auto;html=1;endArrow=diamondThin;endFill=1;" edge="1" parent="WIyWlLk6GJQsqaUBKTNV-1" source="bw-s7jQWCwu21yLXVbwr-103" target="zkfFHV4jXpPFQw0GAbJ--13">
          <mxGeometry relative="1" as="geometry">
            <mxPoint x="520" y="690" as="targetPoint" />
          </mxGeometry>
        </mxCell>
        <mxCell key="bw-s7jQWCwu21yLXVbwr-110" value="1" style="edgeLabel;html=1;align=center;verticalAlign=middle;resizable=0;points=[];" vertex="1" connectable="0" parent="bw-s7jQWCwu21yLXVbwr-109">
          <mxGeometry x="0.823" y="-2" relative="1" as="geometry">
            <mxPoint x="14" as="offset" />
          </mxGeometry>
        </mxCell>
        <mxCell key="bw-s7jQWCwu21yLXVbwr-112" value="(0,*)" style="edgeLabel;html=1;align=center;verticalAlign=middle;resizable=0;points=[];" vertex="1" connectable="0" parent="bw-s7jQWCwu21yLXVbwr-109">
          <mxGeometry x="-0.8628" y="1" relative="1" as="geometry">
            <mxPoint x="16" as="offset" />
          </mxGeometry>
        </mxCell>
        <mxCell key="bw-s7jQWCwu21yLXVbwr-103" value="CadastraEvento" style="swimlane;fontStyle=0;align=center;verticalAlign=top;childLayout=stackLayout;horizontal=1;startSize=26;horizontalStack=0;resizeParent=1;resizeLast=0;collapsible=1;marginBottom=0;rounded=0;shadow=0;strokeWidth=1;" vertex="1" parent="WIyWlLk6GJQsqaUBKTNV-1">
          <mxGeometry x="550" y="874" width="160" height="86" as="geometry">
            <mxRectangle x="340" y="380" width="170" height="26" as="alternateBounds" />
          </mxGeometry>
        </mxCell>
        <mxCell key="bw-s7jQWCwu21yLXVbwr-105" value="- dataCadastro: Date" style="text;align=left;verticalAlign=top;spacingLeft=4;spacingRight=4;overflow=hidden;rotatable=0;points=[[0,0.5],[1,0.5]];portConstraint=eastwest;" vertex="1" parent="bw-s7jQWCwu21yLXVbwr-103">
          <mxGeometry y="26" width="160" height="26" as="geometry" />
        </mxCell>
        <mxCell key="bw-s7jQWCwu21yLXVbwr-106" value="" style="line;html=1;strokeWidth=1;align=left;verticalAlign=middle;spacingTop=-1;spacingLeft=3;spacingRight=3;rotatable=0;labelPosition=right;points=[];portConstraint=eastwest;" vertex="1" parent="bw-s7jQWCwu21yLXVbwr-103">
          <mxGeometry y="52" width="160" height="8" as="geometry" />
        </mxCell>
        <mxCell key="bw-s7jQWCwu21yLXVbwr-115" style="rounded=0;orthogonalLoop=1;jettySize=auto;html=1;endArrow=diamondThin;endFill=1;" edge="1" parent="WIyWlLk6GJQsqaUBKTNV-1" source="bw-s7jQWCwu21yLXVbwr-11" target="bw-s7jQWCwu21yLXVbwr-83">
          <mxGeometry relative="1" as="geometry" />
        </mxCell>
        <mxCell key="bw-s7jQWCwu21yLXVbwr-116" value="1" style="edgeLabel;html=1;align=center;verticalAlign=middle;resizable=0;points=[];" vertex="1" connectable="0" parent="bw-s7jQWCwu21yLXVbwr-115">
          <mxGeometry x="-0.7984" relative="1" as="geometry">
            <mxPoint x="-30" y="10" as="offset" />
          </mxGeometry>
        </mxCell>
        <mxCell key="bw-s7jQWCwu21yLXVbwr-117" value="SolicitaServico" style="swimlane;fontStyle=0;align=center;verticalAlign=top;childLayout=stackLayout;horizontal=1;startSize=26;horizontalStack=0;resizeParent=1;resizeLast=0;collapsible=1;marginBottom=0;rounded=0;shadow=0;strokeWidth=1;" vertex="1" parent="WIyWlLk6GJQsqaUBKTNV-1">
          <mxGeometry x="1010" y="900" width="190" height="60" as="geometry">
            <mxRectangle x="340" y="380" width="170" height="26" as="alternateBounds" />
          </mxGeometry>
        </mxCell>
        <mxCell key="bw-s7jQWCwu21yLXVbwr-118" value="- dataSolicitacao: Date" style="text;align=left;verticalAlign=top;spacingLeft=4;spacingRight=4;overflow=hidden;rotatable=0;points=[[0,0.5],[1,0.5]];portConstraint=eastwest;" vertex="1" parent="bw-s7jQWCwu21yLXVbwr-117">
          <mxGeometry y="26" width="190" height="26" as="geometry" />
        </mxCell>
        <mxCell key="bw-s7jQWCwu21yLXVbwr-122" value="" style="line;html=1;strokeWidth=1;align=left;verticalAlign=middle;spacingTop=-1;spacingLeft=3;spacingRight=3;rotatable=0;labelPosition=right;points=[];portConstraint=eastwest;" vertex="1" parent="bw-s7jQWCwu21yLXVbwr-117">
          <mxGeometry y="52" width="190" height="8" as="geometry" />
        </mxCell>
        <mxCell key="bw-s7jQWCwu21yLXVbwr-124" style="rounded=0;orthogonalLoop=1;jettySize=auto;html=1;endArrow=diamondThin;endFill=1;" edge="1" parent="WIyWlLk6GJQsqaUBKTNV-1" source="bw-s7jQWCwu21yLXVbwr-91" target="bw-s7jQWCwu21yLXVbwr-117">
          <mxGeometry relative="1" as="geometry" />
        </mxCell>
        <mxCell key="bw-s7jQWCwu21yLXVbwr-125" value="1" style="edgeLabel;html=1;align=center;verticalAlign=middle;resizable=0;points=[];" vertex="1" connectable="0" parent="bw-s7jQWCwu21yLXVbwr-124">
          <mxGeometry x="0.8167" y="3" relative="1" as="geometry">
            <mxPoint x="-73" y="-52" as="offset" />
          </mxGeometry>
        </mxCell>
        <mxCell key="bw-s7jQWCwu21yLXVbwr-126" value="(0,*)" style="edgeLabel;html=1;align=center;verticalAlign=middle;resizable=0;points=[];" vertex="1" connectable="0" parent="bw-s7jQWCwu21yLXVbwr-124">
          <mxGeometry x="0.8048" y="-1" relative="1" as="geometry">
            <mxPoint x="10" y="-15" as="offset" />
          </mxGeometry>
        </mxCell>
        <mxCell key="bw-s7jQWCwu21yLXVbwr-146" style="rounded=0;orthogonalLoop=1;jettySize=auto;html=1;endArrow=diamondThin;endFill=1;" edge="1" parent="WIyWlLk6GJQsqaUBKTNV-1" source="bw-s7jQWCwu21yLXVbwr-131" target="zkfFHV4jXpPFQw0GAbJ--6">
          <mxGeometry relative="1" as="geometry" />
        </mxCell>
        <mxCell key="bw-s7jQWCwu21yLXVbwr-147" value="1" style="edgeLabel;html=1;align=center;verticalAlign=middle;resizable=0;points=[];" vertex="1" connectable="0" parent="bw-s7jQWCwu21yLXVbwr-146">
          <mxGeometry x="0.5351" y="-1" relative="1" as="geometry">
            <mxPoint x="-9" y="6" as="offset" />
          </mxGeometry>
        </mxCell>
        <mxCell key="bw-s7jQWCwu21yLXVbwr-148" value="(0,*)" style="edgeLabel;html=1;align=center;verticalAlign=middle;resizable=0;points=[];" vertex="1" connectable="0" parent="bw-s7jQWCwu21yLXVbwr-146">
          <mxGeometry x="-0.6756" y="-1" relative="1" as="geometry">
            <mxPoint x="-16" as="offset" />
          </mxGeometry>
        </mxCell>
        <mxCell key="bw-s7jQWCwu21yLXVbwr-131" value="Denuncia" style="swimlane;fontStyle=0;align=center;verticalAlign=top;childLayout=stackLayout;horizontal=1;startSize=26;horizontalStack=0;resizeParent=1;resizeLast=0;collapsible=1;marginBottom=0;rounded=0;shadow=0;strokeWidth=1;" vertex="1" parent="WIyWlLk6GJQsqaUBKTNV-1">
          <mxGeometry x="-220" y="277" width="190" height="138" as="geometry">
            <mxRectangle x="340" y="380" width="170" height="26" as="alternateBounds" />
          </mxGeometry>
        </mxCell>
        <mxCell key="bw-s7jQWCwu21yLXVbwr-132" value="- descricao : String" style="text;align=left;verticalAlign=top;spacingLeft=4;spacingRight=4;overflow=hidden;rotatable=0;points=[[0,0.5],[1,0.5]];portConstraint=eastwest;" vertex="1" parent="bw-s7jQWCwu21yLXVbwr-131">
          <mxGeometry y="26" width="190" height="26" as="geometry" />
        </mxCell>
        <mxCell key="bw-s7jQWCwu21yLXVbwr-133" value="- Motivo : String" style="text;align=left;verticalAlign=top;spacingLeft=4;spacingRight=4;overflow=hidden;rotatable=0;points=[[0,0.5],[1,0.5]];portConstraint=eastwest;" vertex="1" parent="bw-s7jQWCwu21yLXVbwr-131">
          <mxGeometry y="52" width="190" height="26" as="geometry" />
        </mxCell>
        <mxCell key="bw-s7jQWCwu21yLXVbwr-134" value="- dataEnvio: Date" style="text;align=left;verticalAlign=top;spacingLeft=4;spacingRight=4;overflow=hidden;rotatable=0;points=[[0,0.5],[1,0.5]];portConstraint=eastwest;" vertex="1" parent="bw-s7jQWCwu21yLXVbwr-131">
          <mxGeometry y="78" width="190" height="26" as="geometry" />
        </mxCell>
        <mxCell key="bw-s7jQWCwu21yLXVbwr-135" value="- status: StatusDenuncia" style="text;align=left;verticalAlign=top;spacingLeft=4;spacingRight=4;overflow=hidden;rotatable=0;points=[[0,0.5],[1,0.5]];portConstraint=eastwest;" vertex="1" parent="bw-s7jQWCwu21yLXVbwr-131">
          <mxGeometry y="104" width="190" height="26" as="geometry" />
        </mxCell>
        <mxCell key="bw-s7jQWCwu21yLXVbwr-136" value="" style="line;html=1;strokeWidth=1;align=left;verticalAlign=middle;spacingTop=-1;spacingLeft=3;spacingRight=3;rotatable=0;labelPosition=right;points=[];portConstraint=eastwest;" vertex="1" parent="bw-s7jQWCwu21yLXVbwr-131">
          <mxGeometry y="130" width="190" height="8" as="geometry" />
        </mxCell>
        <mxCell key="bw-s7jQWCwu21yLXVbwr-142" style="rounded=0;orthogonalLoop=1;jettySize=auto;html=1;endArrow=diamondThin;endFill=1;" edge="1" parent="WIyWlLk6GJQsqaUBKTNV-1" source="bw-s7jQWCwu21yLXVbwr-137" target="bw-s7jQWCwu21yLXVbwr-131">
          <mxGeometry relative="1" as="geometry">
            <Array as="points" />
          </mxGeometry>
        </mxCell>
        <mxCell key="bw-s7jQWCwu21yLXVbwr-143" value="1" style="edgeLabel;html=1;align=center;verticalAlign=middle;resizable=0;points=[];" vertex="1" connectable="0" parent="bw-s7jQWCwu21yLXVbwr-142">
          <mxGeometry x="-0.68" y="2" relative="1" as="geometry">
            <mxPoint y="-9" as="offset" />
          </mxGeometry>
        </mxCell>
        <mxCell key="bw-s7jQWCwu21yLXVbwr-137" value="&lt;&lt;enum&gt;&gt;&#xa;TipoUsuario" style="swimlane;fontStyle=0;align=center;verticalAlign=top;childLayout=stackLayout;horizontal=1;startSize=40;horizontalStack=0;resizeParent=1;resizeLast=0;collapsible=1;marginBottom=0;rounded=0;shadow=0;strokeWidth=1;" vertex="1" parent="WIyWlLk6GJQsqaUBKTNV-1">
          <mxGeometry x="-40" y="87" width="160" height="126" as="geometry">
            <mxRectangle x="340" y="380" width="170" height="26" as="alternateBounds" />
          </mxGeometry>
        </mxCell>
        <mxCell key="bw-s7jQWCwu21yLXVbwr-138" value="PENDENTE" style="text;align=left;verticalAlign=top;spacingLeft=4;spacingRight=4;overflow=hidden;rotatable=0;points=[[0,0.5],[1,0.5]];portConstraint=eastwest;" vertex="1" parent="bw-s7jQWCwu21yLXVbwr-137">
          <mxGeometry y="40" width="160" height="26" as="geometry" />
        </mxCell>
        <mxCell key="bw-s7jQWCwu21yLXVbwr-139" value="VALIDA" style="text;align=left;verticalAlign=top;spacingLeft=4;spacingRight=4;overflow=hidden;rotatable=0;points=[[0,0.5],[1,0.5]];portConstraint=eastwest;" vertex="1" parent="bw-s7jQWCwu21yLXVbwr-137">
          <mxGeometry y="66" width="160" height="26" as="geometry" />
        </mxCell>
        <mxCell key="bw-s7jQWCwu21yLXVbwr-141" value="REJEITADA" style="text;align=left;verticalAlign=top;spacingLeft=4;spacingRight=4;overflow=hidden;rotatable=0;points=[[0,0.5],[1,0.5]];portConstraint=eastwest;" vertex="1" parent="bw-s7jQWCwu21yLXVbwr-137">
          <mxGeometry y="92" width="160" height="26" as="geometry" />
        </mxCell>
        <mxCell key="bw-s7jQWCwu21yLXVbwr-140" value="" style="line;html=1;strokeWidth=1;align=left;verticalAlign=middle;spacingTop=-1;spacingLeft=3;spacingRight=3;rotatable=0;labelPosition=right;points=[];portConstraint=eastwest;" vertex="1" parent="bw-s7jQWCwu21yLXVbwr-137">
          <mxGeometry y="118" width="160" height="8" as="geometry" />
        </mxCell>
        <mxCell key="bw-s7jQWCwu21yLXVbwr-155" style="rounded=0;orthogonalLoop=1;jettySize=auto;html=1;endArrow=diamondThin;endFill=1;" edge="1" parent="WIyWlLk6GJQsqaUBKTNV-1" source="bw-s7jQWCwu21yLXVbwr-149" target="bw-s7jQWCwu21yLXVbwr-13">
          <mxGeometry relative="1" as="geometry" />
        </mxCell>
        <mxCell key="bw-s7jQWCwu21yLXVbwr-156" value="1" style="edgeLabel;html=1;align=center;verticalAlign=middle;resizable=0;points=[];" vertex="1" connectable="0" parent="bw-s7jQWCwu21yLXVbwr-155">
          <mxGeometry x="0.3477" y="1" relative="1" as="geometry">
            <mxPoint x="1" y="-14" as="offset" />
          </mxGeometry>
        </mxCell>
        <mxCell key="bw-s7jQWCwu21yLXVbwr-157" style="rounded=0;orthogonalLoop=1;jettySize=auto;html=1;endArrow=diamondThin;endFill=1;" edge="1" parent="WIyWlLk6GJQsqaUBKTNV-1" source="zkfFHV4jXpPFQw0GAbJ--13" target="bw-s7jQWCwu21yLXVbwr-149">
          <mxGeometry relative="1" as="geometry" />
        </mxCell>
        <mxCell key="bw-s7jQWCwu21yLXVbwr-158" value="1" style="edgeLabel;html=1;align=center;verticalAlign=middle;resizable=0;points=[];" vertex="1" connectable="0" parent="bw-s7jQWCwu21yLXVbwr-157">
          <mxGeometry x="0.809" y="1" relative="1" as="geometry">
            <mxPoint x="119" y="-32" as="offset" />
          </mxGeometry>
        </mxCell>
        <mxCell key="bw-s7jQWCwu21yLXVbwr-159" value="(0,*)" style="edgeLabel;html=1;align=center;verticalAlign=middle;resizable=0;points=[];" vertex="1" connectable="0" parent="bw-s7jQWCwu21yLXVbwr-157">
          <mxGeometry x="-0.6726" y="2" relative="1" as="geometry">
            <mxPoint x="-124" y="-9" as="offset" />
          </mxGeometry>
        </mxCell>
        <mxCell key="bw-s7jQWCwu21yLXVbwr-149" value="AvaliacaoCliente" style="swimlane;fontStyle=0;align=center;verticalAlign=top;childLayout=stackLayout;horizontal=1;startSize=26;horizontalStack=0;resizeParent=1;resizeLast=0;collapsible=1;marginBottom=0;rounded=0;shadow=0;strokeWidth=1;" vertex="1" parent="WIyWlLk6GJQsqaUBKTNV-1">
          <mxGeometry x="240" y="490" width="190" height="138" as="geometry">
            <mxRectangle x="340" y="380" width="170" height="26" as="alternateBounds" />
          </mxGeometry>
        </mxCell>
        <mxCell key="bw-s7jQWCwu21yLXVbwr-150" value="- nota: int" style="text;align=left;verticalAlign=top;spacingLeft=4;spacingRight=4;overflow=hidden;rotatable=0;points=[[0,0.5],[1,0.5]];portConstraint=eastwest;" vertex="1" parent="bw-s7jQWCwu21yLXVbwr-149">
          <mxGeometry y="26" width="190" height="26" as="geometry" />
        </mxCell>
        <mxCell key="bw-s7jQWCwu21yLXVbwr-151" value="- comentario : String" style="text;align=left;verticalAlign=top;spacingLeft=4;spacingRight=4;overflow=hidden;rotatable=0;points=[[0,0.5],[1,0.5]];portConstraint=eastwest;" vertex="1" parent="bw-s7jQWCwu21yLXVbwr-149">
          <mxGeometry y="52" width="190" height="26" as="geometry" />
        </mxCell>
        <mxCell key="bw-s7jQWCwu21yLXVbwr-152" value="- dataAvaliacao: Date" style="text;align=left;verticalAlign=top;spacingLeft=4;spacingRight=4;overflow=hidden;rotatable=0;points=[[0,0.5],[1,0.5]];portConstraint=eastwest;" vertex="1" parent="bw-s7jQWCwu21yLXVbwr-149">
          <mxGeometry y="78" width="190" height="26" as="geometry" />
        </mxCell>
        <mxCell key="bw-s7jQWCwu21yLXVbwr-153" value="- regrasDeUso : Sring" style="text;align=left;verticalAlign=top;spacingLeft=4;spacingRight=4;overflow=hidden;rotatable=0;points=[[0,0.5],[1,0.5]];portConstraint=eastwest;" vertex="1" parent="bw-s7jQWCwu21yLXVbwr-149">
          <mxGeometry y="104" width="190" height="26" as="geometry" />
        </mxCell>
        <mxCell key="bw-s7jQWCwu21yLXVbwr-154" value="" style="line;html=1;strokeWidth=1;align=left;verticalAlign=middle;spacingTop=-1;spacingLeft=3;spacingRight=3;rotatable=0;labelPosition=right;points=[];portConstraint=eastwest;" vertex="1" parent="bw-s7jQWCwu21yLXVbwr-149">
          <mxGeometry y="130" width="190" height="8" as="geometry" />
        </mxCell>
      </root>
    </mxGraphModel>
  </diagram>
</mxfile>
